<svg width="1200" height="1500" viewBox="0 0 1200 1500" fill="none" xmlns="http://www.w3.org/2000/svg">
  <rect width="1200" height="1500" fill="#F3ECE2"/>
  <rect x="116" y="108" width="968" height="1284" rx="34" fill="#FBF7F1" stroke="#181310" stroke-width="2"/>
  <rect x="164" y="156" width="872" height="90" rx="22" fill="#181310"/>
  <text x="204" y="212" fill="#FBF7F1" font-family="Inter, Arial, sans-serif" font-size="28" letter-spacing="8">ATLAS CONCEPT</text>
  <rect x="164" y="292" width="872" height="420" rx="28" fill="#EEE7DB" stroke="#181310" stroke-width="2"/>
  <rect x="204" y="338" width="492" height="328" rx="22" fill="#181310"/>
  <text x="246" y="420" fill="#FBF7F1" font-family="Inter, Arial, sans-serif" font-size="22" letter-spacing="4">PRODUCT STAGE</text>
  <text x="246" y="510" fill="#FBF7F1" font-family="Inter, Arial, sans-serif" font-size="92">signal</text>
  <text x="246" y="594" fill="#FBF7F1" font-family="Inter, Arial, sans-serif" font-size="92">atlas</text>
  <rect x="734" y="338" width="254" height="146" rx="22" fill="#FBF7F1" stroke="#181310" stroke-width="2"/>
  <rect x="734" y="520" width="254" height="146" rx="22" fill="#FBF7F1" stroke="#181310" stroke-width="2"/>
  <g fill="#181310" font-family="Inter, Arial, sans-serif">
    <text x="764" y="392" font-size="18" letter-spacing="3">PROOF</text>
    <text x="764" y="444" font-size="42">+42%</text>
    <text x="764" y="574" font-size="18" letter-spacing="3">RANGE</text>
    <text x="764" y="626" font-size="42">bento / rail</text>
  </g>
  <rect x="164" y="756" width="418" height="530" rx="28" fill="#181310"/>
  <rect x="618" y="756" width="418" height="252" rx="28" fill="#EEE7DB" stroke="#181310" stroke-width="2"/>
  <rect x="618" y="1034" width="418" height="252" rx="28" fill="#F7F1E8" stroke="#181310" stroke-width="2"/>
  <g fill="#FBF7F1" font-family="Inter, Arial, sans-serif">
    <text x="206" y="820" font-size="20" letter-spacing="4">FOCAL PAGE</text>
    <text x="206" y="924" font-size="76">one</text>
    <text x="206" y="996" font-size="76">layout</text>
    <text x="206" y="1068" font-size="76">idea</text>
  </g>
  <g fill="#181310" font-family="Inter, Arial, sans-serif">
    <text x="658" y="818" font-size="18" letter-spacing="3">MOTION</text>
    <text x="658" y="876" font-size="48">staged reveal</text>
    <text x="658" y="1096" font-size="18" letter-spacing="3">CONVERSION</text>
    <text x="658" y="1154" font-size="48">quiet finish</text>
  </g>
</svg>
